<svg width="34" height="34" viewBox="0 0 34 34" fill="none" xmlns="http://www.w3.org/2000/svg">
<path d="M16.9997 22.9444L23.2774 16.6667L16.9997 10.3889L15.0553 12.3333L17.9997 15.2778H10.6108V18.0555H17.9997L15.0553 21L16.9997 22.9444ZM16.9997 33.3333C14.7126 33.3333 12.5552 32.8958 10.5275 32.0208C8.49969 31.1458 6.73116 29.9537 5.22188 28.4445C3.71263 26.9352 2.52051 25.1667 1.64551 23.1389C0.770508 21.1111 0.333008 18.9537 0.333008 16.6667C0.333008 14.3611 0.770508 12.1944 1.64551 10.1667C2.52051 8.13889 3.71263 6.375 5.22188 4.875C6.73116 3.375 8.49969 2.1875 10.5275 1.3125C12.5552 0.4375 14.7126 0 16.9997 0C19.3052 0 21.4719 0.4375 23.4997 1.3125C25.5275 2.1875 27.2913 3.375 28.7913 4.875C30.2913 6.375 31.4788 8.13889 32.3538 10.1667C33.2288 12.1944 33.6663 14.3611 33.6663 16.6667C33.6663 18.9537 33.2288 21.1111 32.3538 23.1389C31.4788 25.1667 30.2913 26.9352 28.7913 28.4445C27.2913 29.9537 25.5275 31.1458 23.4997 32.0208C21.4719 32.8958 19.3052 33.3333 16.9997 33.3333ZM16.9997 30.5556C20.87 30.5556 24.1525 29.2037 26.8469 26.5C29.5414 23.7963 30.8886 20.5185 30.8886 16.6667C30.8886 12.7963 29.5414 9.51389 26.8469 6.81942C24.1525 4.12497 20.87 2.77775 16.9997 2.77775C13.1478 2.77775 9.87004 4.12497 7.16634 6.81942C4.46262 9.51389 3.11076 12.7963 3.11076 16.6667C3.11076 20.5185 4.46262 23.7963 7.16634 26.5C9.87004 29.2037 13.1478 30.5556 16.9997 30.5556Z" fill="#1C1B1F"/>
</svg>
