<svg width="41" height="40" viewBox="0 0 41 40" fill="none" xmlns="http://www.w3.org/2000/svg">
<g clip-path="url(#clip0_68_320)">
<path fill-rule="evenodd" clip-rule="evenodd" d="M4.05401 0.0182392C3.0782 0.111919 2.14961 0.552767 1.44604 1.25632C0.734121 1.96826 0.299401 2.89163 0.207001 3.88811C0.182953 4.14757 0.182953 35.8527 0.207001 36.1121C0.364505 37.8109 1.52102 39.2572 3.14983 39.7925C3.35954 39.8614 3.61842 39.9215 3.88583 39.9633C4.06131 39.9908 4.46676 39.9921 12.6298 39.9921C20.8411 39.9921 21.1941 39.9909 21.2938 39.9632C21.351 39.9472 21.4626 39.9029 21.5418 39.8646C21.9336 39.6752 22.2114 39.3414 22.3217 38.9275L22.3578 38.7921V31.8001V24.8081L22.3217 24.6727C22.2111 24.2575 21.9208 23.911 21.5316 23.7292C21.2665 23.6055 21.3342 23.6115 20.0938 23.6013C18.8834 23.5913 18.9387 23.5957 18.8506 23.5014C18.7639 23.4085 18.7658 23.4393 18.7658 22.1791V21.0132L18.8031 20.9426C18.8275 20.8963 18.8669 20.8556 18.9178 20.8241L18.9953 20.7761L20.1006 20.7674C21.0851 20.7596 21.2162 20.7556 21.3004 20.7309C21.5479 20.6584 21.735 20.5498 21.9236 20.3692C22.1182 20.1829 22.2474 19.9669 22.3213 19.7041L22.3573 19.5761L22.3622 17.7681C22.3664 16.2325 22.3634 15.9224 22.3425 15.7101C22.2088 14.3543 22.6088 13.0064 23.4601 11.9441C23.6158 11.7499 23.9565 11.3984 24.1418 11.2408C24.8107 10.6723 25.6477 10.2668 26.5018 10.0974C26.9575 10.0071 26.8864 10.0097 29.0298 10.0039C30.4908 9.99994 31.0313 10.0034 31.0801 10.0169C31.1677 10.0412 31.2589 10.1183 31.2955 10.199C31.3235 10.2604 31.3251 10.3304 31.3255 11.4271C31.3257 12.0721 31.3195 12.6065 31.3115 12.6271C31.2848 12.6965 31.1591 12.813 31.1006 12.8227C31.0705 12.8277 30.5526 12.8344 29.9498 12.8376C28.7858 12.8438 28.7097 12.8481 28.343 12.9295C27.6127 13.0916 27.0154 13.502 26.6143 14.1173C26.3614 14.5053 26.1693 15.0514 26.0871 15.6161C26.0247 16.0448 26.0218 16.1435 26.0218 17.8801V19.5761L26.0581 19.7041C26.134 19.972 26.2627 20.1852 26.4638 20.3763C26.6128 20.5178 26.7549 20.6111 26.9168 20.6737C27.1565 20.7664 27.1821 20.7681 28.3247 20.7681C29.4769 20.7681 29.4746 20.7679 29.5766 20.8668C29.6786 20.9656 29.6779 20.9566 29.6774 22.183C29.6772 22.7908 29.6707 23.3155 29.663 23.3489C29.6432 23.4342 29.5855 23.512 29.5101 23.5553L29.4458 23.5921L28.2538 23.6008C27.0788 23.6093 27.0602 23.61 26.9447 23.6452C26.7999 23.6893 26.6283 23.7742 26.5018 23.8642C26.3906 23.9434 26.2191 24.118 26.1432 24.2293C26.0642 24.3452 25.9717 24.5532 25.9389 24.6881C25.911 24.8032 25.9098 25.0952 25.9098 31.8001C25.9098 38.505 25.911 38.797 25.9389 38.9121C25.9717 39.0471 26.0642 39.255 26.1432 39.3709C26.2191 39.4822 26.3906 39.6568 26.5018 39.736C26.6273 39.8253 26.7988 39.9105 26.9447 39.9557L27.0618 39.9921L31.5658 39.9969C34.7682 40.0004 36.1299 39.9966 36.2778 39.984C36.9224 39.929 37.5382 39.7304 38.0956 39.3979C39.03 38.8403 39.7277 37.9381 40.0237 36.9043C40.0908 36.6699 40.1552 36.3306 40.1687 36.1403C40.1742 36.0626 40.1848 35.9952 40.1923 35.9906C40.1997 35.986 40.2058 28.7822 40.2058 19.9822C40.2058 11.1646 40.1997 3.986 40.1922 3.99066C40.1847 3.9953 40.1741 3.93598 40.1686 3.85886C40.1552 3.66952 40.0906 3.32982 40.0237 3.09597C39.7716 2.21562 39.2208 1.41736 38.481 0.860015C37.8492 0.384127 37.0895 0.0903032 36.3018 0.0172792C36.0746 -0.00377681 4.27356 -0.00283281 4.05401 0.0182392ZM4.22596 2.88181C4.01914 2.91635 3.7701 3.0303 3.59087 3.1724C3.31844 3.38842 3.12084 3.72458 3.06985 4.05883C3.05835 4.13422 3.05455 9.09902 3.05761 20.0721C3.06167 34.5885 3.0643 35.9831 3.08762 36.0561C3.18057 36.347 3.29337 36.5425 3.47038 36.7196C3.64743 36.8966 3.84358 37.0098 4.13383 37.1023C4.20649 37.1254 4.91526 37.1282 11.8578 37.132L19.5018 37.1363V31.8028V26.4692L19.1378 26.4587C18.7678 26.448 18.5757 26.4266 18.3331 26.3689C17.0269 26.0584 16.0543 24.944 15.9186 23.6024C15.8961 23.3801 15.8962 20.9874 15.9187 20.7658C16.0412 19.5584 16.8365 18.5343 17.9814 18.1092C18.3673 17.966 18.6655 17.9174 19.1509 17.9188L19.5018 17.9197L19.501 16.9799C19.5005 16.463 19.4934 15.9825 19.4852 15.9121C19.4583 15.682 19.4484 14.9688 19.468 14.6825C19.5807 13.0419 20.1643 11.5093 21.1615 10.2357C22.5968 8.40245 24.7244 7.28728 27.0458 7.15144C27.2518 7.13938 27.9894 7.13587 29.3338 7.14054C31.4338 7.14786 31.3898 7.14634 31.7178 7.22262C33.0362 7.5292 34.0248 8.64891 34.1728 10.0035C34.1834 10.1001 34.1898 10.6489 34.1898 11.4547C34.1898 12.8533 34.1851 12.952 34.1023 13.2801C33.9689 13.8091 33.726 14.2538 33.3482 14.6609C32.8248 15.2248 32.2259 15.5514 31.5236 15.6559C31.4007 15.6742 31.1188 15.6809 30.2458 15.6864C29.6298 15.6903 29.0959 15.6985 29.0594 15.7047C28.9941 15.7157 28.9925 15.7175 28.9655 15.8138C28.896 16.0616 28.8909 16.137 28.8827 17.0423L28.8749 17.9165L29.3363 17.9245C29.7544 17.9317 29.816 17.9363 29.991 17.9738C30.5977 18.1038 31.1109 18.3735 31.5454 18.7906C31.8473 19.0803 32.0375 19.34 32.2145 19.7041C32.4069 20.1 32.498 20.4568 32.5273 20.9298C32.5385 21.1101 32.5422 21.6371 32.5376 22.3938C32.5314 23.4078 32.5265 23.6 32.5031 23.7441C32.3296 24.8121 31.6946 25.6768 30.7458 26.1366C30.2411 26.3813 29.8263 26.4637 29.0978 26.464L28.7658 26.4641V31.8004V37.1366L32.4658 37.132C35.7913 37.128 36.1739 37.1249 36.2458 37.1021C36.5348 37.0105 36.7322 36.8967 36.9093 36.7196C37.092 36.5369 37.2284 36.2939 37.2953 36.0321C37.3292 35.8996 37.3292 4.10059 37.2953 3.96811C37.2284 3.70635 37.092 3.46334 36.9093 3.28066C36.7323 3.10365 36.5367 2.99085 36.2458 2.8979C36.1728 2.87456 34.78 2.87214 20.2378 2.87006C11.1921 2.86878 4.27359 2.87386 4.22596 2.88181ZM0.197801 20.0001C0.197801 28.8045 0.199609 32.4063 0.201833 28.0041C0.204057 23.6019 0.204057 16.3983 0.201833 11.9961C0.199609 7.59392 0.197801 11.1957 0.197801 20.0001Z" fill="#9D3DA2"/>
</g>
<defs>
<clipPath id="clip0_68_320">
<rect width="40" height="40" fill="white" transform="translate(0.189941)"/>
</clipPath>
</defs>
</svg>
