<svg width="40" height="40" viewBox="0 0 40 40" fill="none" xmlns="http://www.w3.org/2000/svg">
<path fill-rule="evenodd" clip-rule="evenodd" d="M9.11179 1.02447C6.66341 1.21285 4.42518 2.40255 2.89673 4.328C1.91094 5.56986 1.27787 7.06586 1.07198 8.64C0.997214 9.21162 1.00001 8.78509 1.00001 19.584C1.00001 30.3877 0.997198 29.9606 1.07227 30.528C1.2632 31.9713 1.81144 33.3535 2.65566 34.52C3.53689 35.7376 4.77841 36.7603 6.10379 37.3604C7.16665 37.8416 8.19064 38.0923 9.33579 38.1515C9.76129 38.1736 29.4035 38.1739 29.8238 38.1519C30.83 38.0992 31.7638 37.8943 32.6784 37.5254C32.9432 37.4186 33.4772 37.1593 33.7323 37.0136C35.0904 36.2383 36.2381 35.0906 37.0134 33.7325C37.1796 33.4415 37.4277 32.9234 37.5481 32.616C37.9131 31.6847 38.1012 30.8117 38.1517 29.816C38.1739 29.3778 38.1735 9.79023 38.1513 9.35036C38.0399 7.14464 37.1475 5.1308 35.5922 3.57556C34.083 2.06636 32.1638 1.18669 30.0238 1.02328C29.6073 0.991476 9.52577 0.992628 9.11179 1.02447ZM9.35979 3.87397C9.33339 3.8769 9.22899 3.88741 9.12779 3.89732C8.1199 3.99592 7.05576 4.41746 6.22347 5.0478C5.46966 5.61869 4.8819 6.3289 4.46952 7.16717C4.16573 7.78472 3.98624 8.39064 3.89341 9.112C3.87545 9.25159 3.87179 11.0228 3.87179 19.584C3.87179 29.4854 3.87294 29.8964 3.90112 30.104C4.10189 31.5829 4.76561 32.8455 5.84779 33.8072C6.82653 34.677 8.01789 35.1817 9.34211 35.2875C9.62555 35.3102 29.5548 35.3102 29.8238 35.2875C30.604 35.2218 31.2585 35.0471 31.9246 34.7269C32.5008 34.4498 32.9031 34.1797 33.3724 33.7545C34.3834 32.8385 35.0601 31.5575 35.2458 30.208C35.3058 29.7717 35.3056 29.8067 35.3002 19.424L35.2949 9.28L35.2591 9.03309C35.1697 8.41765 35.0431 7.95976 34.8149 7.42711C34.4812 6.64786 33.9727 5.94453 33.3278 5.37031C33.066 5.13724 32.9396 5.03842 32.6829 4.86623C31.92 4.35439 31.1368 4.05676 30.1598 3.9073L29.9358 3.87304L19.6718 3.87084C14.0266 3.86964 9.38619 3.87104 9.35979 3.87397ZM29.2798 7.53903C28.7469 7.60818 28.3268 7.8134 27.9633 8.18216C27.6218 8.52853 27.4163 8.97704 27.3669 9.48362C27.2991 10.1778 27.5997 10.8939 28.1415 11.3291C29.0026 12.0208 30.2003 11.9717 30.985 11.2127C31.2983 10.9097 31.5063 10.5346 31.5996 10.104C31.6355 9.9386 31.6488 9.56536 31.6248 9.39804C31.5833 9.10799 31.4988 8.8557 31.3657 8.62341C31.0259 8.03085 30.4728 7.65309 29.7963 7.55148C29.653 7.52996 29.3972 7.5238 29.2798 7.53903ZM18.9278 10.8896C17.7852 10.9841 16.7924 11.2519 15.7876 11.7368C13.2641 12.9547 11.4713 15.3301 10.9942 18.088C10.8548 18.8938 10.8315 19.8021 10.929 20.624C11.1594 22.5656 12.0284 24.3494 13.4234 25.7444C15.4365 27.7576 18.2872 28.6574 21.0958 28.1661C22.219 27.9697 23.3471 27.5268 24.3038 26.9067C26.4636 25.5069 27.8966 23.2424 28.224 20.712C28.3167 19.9958 28.3166 19.1552 28.2237 18.448C27.8918 15.9206 26.4709 13.668 24.3278 12.2715C23.0947 11.468 21.7035 11.0018 20.2006 10.8883C19.9513 10.8694 19.1619 10.8703 18.9278 10.8896ZM19.2872 13.7372C18.1492 13.7886 17.0204 14.1913 16.1035 14.8732C14.8204 15.8275 13.981 17.2515 13.7761 18.8217C13.7225 19.2326 13.7186 19.8763 13.7673 20.272C13.9439 21.7055 14.6154 22.9946 15.6798 23.9432C16.5809 24.7463 17.657 25.2357 18.8718 25.395C19.1834 25.4359 19.9919 25.4355 20.2958 25.3944C21.8525 25.1837 23.182 24.4406 24.1504 23.24C24.8252 22.4033 25.2427 21.4153 25.3942 20.296C25.4353 19.9921 25.4357 19.1836 25.3948 18.872C25.1515 17.0169 24.0953 15.4253 22.4958 14.5036C21.5328 13.9486 20.4313 13.6855 19.2872 13.7372Z" fill="#9D3DA2"/>
</svg>
