<svg width="38" height="38" viewBox="0 0 38 38" fill="none" xmlns="http://www.w3.org/2000/svg">
<path fill-rule="evenodd" clip-rule="evenodd" d="M8.11179 0.024468C5.66341 0.212852 3.42518 1.40255 1.89673 3.328C0.910942 4.56986 0.27787 6.06586 0.0719817 7.64C-0.00278626 8.21162 1.37144e-05 7.78509 1.37144e-05 18.584C1.37144e-05 29.3877 -0.0028023 28.9606 0.0722697 29.528C0.263198 30.9713 0.811438 32.3535 1.65566 33.52C2.53689 34.7376 3.77841 35.7603 5.10379 36.3604C6.16665 36.8416 7.19064 37.0923 8.33579 37.1515C8.76129 37.1736 28.4035 37.1739 28.8238 37.1519C29.83 37.0992 30.7638 36.8943 31.6784 36.5254C31.9432 36.4186 32.4772 36.1593 32.7323 36.0136C34.0903 35.2383 35.2381 34.0906 36.0134 32.7325C36.1796 32.4415 36.4277 31.9234 36.5481 31.616C36.9131 30.6847 37.1012 29.8117 37.1517 28.816C37.1739 28.3778 37.1735 8.79023 37.1513 8.35036C37.0399 6.14464 36.1475 4.1308 34.5922 2.57556C33.083 1.06636 31.1638 0.186692 29.0238 0.0232841C28.6073 -0.00852395 8.52577 -0.00737198 8.11179 0.024468ZM8.35979 2.87397C8.33339 2.8769 8.22899 2.88741 8.12779 2.89732C7.1199 2.99592 6.05576 3.41746 5.22347 4.0478C4.46966 4.61869 3.8819 5.3289 3.46952 6.16717C3.16573 6.78472 2.98624 7.39064 2.89341 8.112C2.87545 8.25159 2.87179 10.0228 2.87179 18.584C2.87179 28.4854 2.87294 28.8964 2.90112 29.104C3.10189 30.5829 3.76561 31.8455 4.84779 32.8072C5.82653 33.677 7.01789 34.1817 8.34211 34.2875C8.62555 34.3102 28.5548 34.3101 28.8238 34.2875C29.604 34.2218 30.2585 34.0471 30.9246 33.7269C31.5008 33.4498 31.9031 33.1797 32.3724 32.7545C33.3834 31.8385 34.0601 30.5575 34.2458 29.208C34.3058 28.7717 34.3056 28.8067 34.3002 18.424L34.2949 8.28L34.2591 8.03309C34.1697 7.41765 34.0431 6.95976 33.8149 6.42711C33.4812 5.64786 32.9727 4.94453 32.3278 4.37031C32.066 4.13724 31.9396 4.03842 31.6829 3.86623C30.92 3.35439 30.1368 3.05676 29.1598 2.9073L28.9358 2.87304L18.6718 2.87084C13.0266 2.86964 8.38619 2.87104 8.35979 2.87397ZM28.2798 6.53903C27.7469 6.60818 27.3268 6.8134 26.9633 7.18216C26.6218 7.52853 26.4163 7.97704 26.3669 8.48362C26.2991 9.17784 26.5997 9.89394 27.1415 10.3291C28.0026 11.0208 29.2003 10.9717 29.985 10.2127C30.2983 9.90973 30.5063 9.53461 30.5996 9.104C30.6355 8.9386 30.6488 8.56536 30.6248 8.39804C30.5833 8.10799 30.4988 7.8557 30.3657 7.62341C30.0259 7.03085 29.4728 6.65309 28.7963 6.55148C28.653 6.52996 28.3972 6.5238 28.2798 6.53903ZM17.9278 9.88962C16.7851 9.98405 15.7924 10.2519 14.7876 10.7368C12.2641 11.9547 10.4713 14.3301 9.99422 17.088C9.85481 17.8938 9.83145 18.8021 9.92897 19.624C10.1594 21.5656 11.0284 23.3494 12.4234 24.7444C14.4365 26.7576 17.2872 27.6574 20.0958 27.1661C21.219 26.9697 22.3471 26.5268 23.3038 25.9067C25.4636 24.5069 26.8966 22.2424 27.224 19.712C27.3167 18.9958 27.3166 18.1552 27.2237 17.448C26.8918 14.9206 25.4709 12.668 23.3278 11.2715C22.0947 10.468 20.7035 10.0018 19.2006 9.88826C18.9513 9.86943 18.1619 9.87028 17.9278 9.88962ZM18.2872 12.7372C17.1492 12.7886 16.0204 13.1913 15.1035 13.8732C13.8204 14.8275 12.981 16.2515 12.7761 17.8217C12.7225 18.2326 12.7186 18.8763 12.7673 19.272C12.9439 20.7055 13.6154 21.9946 14.6798 22.9432C15.5809 23.7463 16.657 24.2357 17.8718 24.395C18.1834 24.4359 18.9919 24.4355 19.2958 24.3944C20.8525 24.1837 22.182 23.4406 23.1504 22.24C23.8252 21.4033 24.2427 20.4153 24.3942 19.296C24.4353 18.9921 24.4357 18.1836 24.3948 17.872C24.1515 16.0169 23.0953 14.4253 21.4958 13.5036C20.5328 12.9486 19.4313 12.6855 18.2872 12.7372Z" fill="#FFEFB2"/>
</svg>
