<svg width="38" height="40" viewBox="0 0 38 40" fill="none" xmlns="http://www.w3.org/2000/svg">
<path fill-rule="evenodd" clip-rule="evenodd" d="M4.74969 0.023284C3.71006 0.121572 2.75606 0.506148 1.94169 1.15528C1.75916 1.30077 1.40441 1.64432 1.25391 1.82135C0.360617 2.87212 -0.106327 4.26837 0.0205368 5.50935C0.233913 7.59636 1.62753 9.34407 3.60561 10.0053C4.193 10.2017 4.85758 10.2978 5.37815 10.2617C6.66043 10.1727 7.81795 9.65013 8.70975 8.75759C10.0199 7.44631 10.5329 5.57596 10.0592 3.83735C9.63079 2.2649 8.49294 0.985492 6.98169 0.376964C6.26276 0.08746 5.44367 -0.042316 4.74969 0.023284ZM4.84756 2.89381C4.22692 2.99804 3.69071 3.32442 3.31254 3.82815C3.19974 3.97839 3.04609 4.27458 2.98254 4.46428C2.83798 4.89575 2.8311 5.23888 2.95818 5.67756C3.21438 6.56181 3.96409 7.22511 4.88569 7.38285C5.34822 7.46204 5.95007 7.29906 6.40924 6.97034C6.57572 6.85114 6.81963 6.60719 6.93899 6.44048C7.28105 5.96269 7.44191 5.30058 7.34206 4.78135C7.1855 3.96727 6.62102 3.29332 5.86105 3.01311C5.50803 2.88295 5.15775 2.84172 4.84756 2.89381ZM25.5817 11.9251C24.0289 12.0439 22.6718 12.5003 21.4217 13.3243L21.2137 13.4614L21.1817 13.4186C21.1641 13.3951 21.109 13.3213 21.0592 13.2546C20.8542 12.9798 20.5388 12.7155 20.2377 12.566C19.9325 12.4144 19.7197 12.3626 19.3177 12.3419C18.2788 12.2884 15.803 12.2657 15.4137 12.3061C14.9216 12.3573 14.6039 12.4429 14.2377 12.6232C13.7008 12.8876 13.3047 13.2923 13.0369 13.8504C12.8522 14.2353 12.7485 14.6645 12.7095 15.2053C12.6966 15.3854 12.6932 18.4386 12.6973 26.3573C12.7025 36.4076 12.705 37.2751 12.7294 37.4374C12.8422 38.1869 13.0262 38.641 13.3963 39.0834C13.7253 39.4768 14.2532 39.7804 14.8297 39.9076C15.2098 39.9915 15.3062 39.9978 16.0937 39.9905C16.4985 39.9867 17.0889 39.9837 17.4057 39.9837C17.7225 39.9837 18.3129 39.9867 18.7177 39.9905C19.3689 39.9966 19.4774 39.994 19.6591 39.9681C20.1944 39.892 20.588 39.7498 20.969 39.495C21.6152 39.0629 21.9778 38.3995 22.1129 37.4025C22.1388 37.2114 22.141 36.7974 22.1455 31.3573C22.1482 28.1453 22.1447 25.4181 22.1379 25.2968C22.1069 24.7492 22.1945 24.3091 22.424 23.8583C22.5582 23.5948 22.6868 23.4203 22.9176 23.1884C23.3186 22.7856 23.7656 22.5553 24.3654 22.4424C24.5427 22.409 25.2487 22.3949 25.4571 22.4205C26.3191 22.5265 27.0849 23.0549 27.476 23.8133C27.6241 24.1004 27.7322 24.4437 27.7582 24.7093C27.7637 24.7665 27.7697 27.5925 27.7715 30.9893C27.775 37.8056 27.7668 37.2511 27.8707 37.7318C28.0595 38.6049 28.5186 39.2285 29.2386 39.5898C29.5305 39.7363 29.8686 39.8325 30.2857 39.8878C30.5272 39.9199 31.2147 39.9235 32.0057 39.8968C32.3156 39.8864 32.6398 39.8863 32.9497 39.8966C33.6544 39.92 34.4162 39.9195 34.6137 39.8957C35.1905 39.8259 35.6463 39.6696 36.0208 39.4131C36.713 38.939 37.0852 38.2021 37.1734 37.1311C37.1956 36.8608 37.1958 21.4138 37.1735 21.1253C36.9848 18.6788 35.9435 16.4363 34.2142 14.7529C33.2614 13.8254 32.2334 13.1511 31.0137 12.6536C29.7854 12.1526 28.5574 11.919 27.1817 11.9247C26.9353 11.9257 26.5141 11.9232 26.2457 11.9191C25.9773 11.915 25.6785 11.9177 25.5817 11.9251ZM3.26969 12.3049C2.32268 12.3673 1.55671 12.7129 1.07846 13.2933C0.722921 13.7249 0.525177 14.2249 0.426169 14.9429C0.399097 15.1392 0.397689 15.6917 0.397689 26.1653C0.397689 37.7264 0.395065 37.2682 0.463465 37.6534C0.587753 38.3533 0.878505 38.9131 1.31769 39.2979C1.65602 39.5944 2.08634 39.8067 2.55252 39.9073C2.94582 39.9921 3.0337 39.9978 3.82169 39.9905C4.75258 39.9818 5.51411 39.9818 6.43769 39.9905C7.08203 39.9966 7.18775 39.994 7.35769 39.9684C8.119 39.8534 8.64564 39.6032 9.06999 39.1546C9.42617 38.7782 9.66049 38.2767 9.77143 37.6534C9.84022 37.2668 9.83769 37.7055 9.83769 26.1813C9.83769 14.2901 9.84363 15.069 9.74947 14.5973C9.62631 13.9805 9.39207 13.5183 9.00665 13.1318C8.56095 12.6848 8.03169 12.4421 7.26105 12.3311C7.08931 12.3064 6.87862 12.3034 5.20569 12.3019C4.18049 12.3009 3.30929 12.3023 3.26969 12.3049ZM25.7017 14.7828C25.6709 14.7865 25.5737 14.7972 25.4857 14.8066C24.8195 14.8781 24.1576 15.0814 23.5171 15.4114C22.7768 15.7928 22.2096 16.2631 21.6508 16.959C21.3541 17.3286 21.1633 17.468 20.8057 17.5767C20.6528 17.6232 20.3252 17.6339 20.1486 17.5981C19.6165 17.4903 19.181 17.0796 19.0451 16.5573C19.0192 16.4578 19.0087 16.3477 18.9976 16.0613C18.9837 15.7008 18.9583 15.4871 18.9062 15.2915L18.8802 15.1937L18.6229 15.1836C17.5899 15.143 15.6301 15.1275 15.598 15.1597C15.5924 15.1653 15.5811 15.2157 15.573 15.2717C15.5563 15.3877 15.5515 36.9477 15.5682 37.0697L15.5787 37.1464L16.2282 37.1319C17.0486 37.1136 17.753 37.1136 18.5993 37.132L19.2649 37.1465L19.2761 37.0076C19.2823 36.9312 19.2865 34.0987 19.2854 30.7131C19.2832 23.9657 19.2766 24.4656 19.3754 23.9777C19.4703 23.5087 19.6139 23.0922 19.8373 22.6373C20.0091 22.2875 20.1529 22.0517 20.3739 21.7573C21.172 20.6943 22.29 19.9746 23.6137 19.6717C24.2333 19.5299 25.2417 19.4982 25.9497 19.5983C26.7363 19.7095 27.6023 20.0515 28.2697 20.5147C28.66 20.7855 29.1349 21.2264 29.4189 21.5813C30.0761 22.403 30.4726 23.342 30.6061 24.3926C30.6283 24.5679 30.6311 25.2611 30.6313 30.7493C30.6314 34.1373 30.6365 36.9418 30.6426 36.9814L30.6538 37.0534L31.2218 37.0454C32.0873 37.0332 33.1031 37.0358 33.7352 37.0518L34.3047 37.0662L34.3148 36.9924C34.3329 36.8604 34.3281 21.4067 34.3099 21.2133C34.0973 18.9538 32.8531 16.9636 30.9224 15.7951C30.2145 15.3667 29.2808 15.0193 28.4777 14.8857C28.0177 14.8092 27.9043 14.8005 27.2857 14.7949C26.9557 14.7919 26.4769 14.7864 26.2217 14.7828C25.9665 14.7791 25.7325 14.7791 25.7017 14.7828ZM3.34706 15.1692C3.31236 15.1727 3.28297 15.1862 3.27506 15.2022C3.25817 15.2365 3.24906 36.9317 3.2659 37.0477L3.27833 37.1334L3.93401 37.1256C4.91209 37.114 5.60438 37.1159 6.31915 37.132L6.9606 37.1465L6.97115 37.0456C6.98548 36.9083 6.98195 15.397 6.96756 15.2819C6.96127 15.2316 6.95047 15.1848 6.94358 15.1779C6.9314 15.1657 3.46482 15.1573 3.34706 15.1692Z" fill="#FFEFB2"/>
</svg>
